<svg xmlns="http://www.w3.org/2000/svg" width="45.094" height="45.075" viewBox="0 0 45.094 45.075">
  <g id="ic-about" transform="translate(3.53 3.531)">
    <path id="Caminho_43864" data-name="Caminho 43864" d="M19.015,38.019A19.01,19.01,0,1,1,25.4,1.1a1.464,1.464,0,1,1-.987,2.756A16.072,16.072,0,1,0,34.946,17.013a1.473,1.473,0,1,1,2.925-.351A19.01,19.01,0,0,1,19.015,38.019Z" transform="matrix(0.208, 0.978, -0.978, 0.208, 33.654, -3.546)" fill="#8be2c0"/>
    <path id="Caminho_43865" data-name="Caminho 43865" d="M25.671,32.8c-.923,0-1.671-.469-1.671-1.047V21.707c0-.578.748-1.047,1.671-1.047s1.671.469,1.671,1.047V31.755C27.342,32.333,26.594,32.8,25.671,32.8Z" transform="translate(-6.448 -5.556)" fill="#8be2c0"/>
    <circle id="Elipse_12" data-name="Elipse 12" cx="1.879" cy="1.879" r="1.879" transform="translate(17.135 9.606)" fill="#8be2c0"/>
  </g>
</svg>
