<svg xmlns="http://www.w3.org/2000/svg" width="21.531" height="21.186" viewBox="0 0 21.531 21.186">
  <g id="ic" transform="translate(-0.978 -1.409)">
    <path id="Caminho_44260" data-name="Caminho 44260" d="M22.476,13.287a8.4,8.4,0,0,0-8.462-7.453H3.146L5.472,2.548A.721.721,0,0,0,4.3,1.71L1.105,6.185a.623.623,0,0,0,0,.716l3.2,4.482a.716.716,0,0,0,1.167-.816l-2.327-3.3H14.013A6.966,6.966,0,0,1,21.044,13.6a6.809,6.809,0,0,1-6.787,7.267H1.714a.716.716,0,1,0,0,1.432H14.243a8.24,8.24,0,0,0,8.233-9.014Z" transform="translate(-0.004)" fill="#fff"/>
    <path id="Caminho_44261" data-name="Caminho 44261" d="M4.287,11.8l-3.2-4.482a.644.644,0,0,1,0-.716l3.2-4.5a.716.716,0,0,1,1-.165h0a.716.716,0,0,1,.165,1L2.59,6.958l2.864,4.009a.716.716,0,0,1-.165,1h0a.716.716,0,0,1-1-.165Z" transform="translate(0 -0.114)" fill="#fff"/>
    <path id="Caminho_44262" data-name="Caminho 44262" d="M14,8H1.716A.716.716,0,0,0,1,8.715H1a.716.716,0,0,0,.716.716H14a6.966,6.966,0,0,1,7.045,6.336,6.809,6.809,0,0,1-6.8,7.267H1.716A.716.716,0,0,0,1,23.75H1a.716.716,0,0,0,.716.716H14.245a8.24,8.24,0,0,0,8.233-9.028A8.391,8.391,0,0,0,14,8Z" transform="translate(-0.006 -1.872)" fill="#fff"/>
  </g>
</svg>
