<svg id="ic-home" xmlns="http://www.w3.org/2000/svg" xmlns:xlink="http://www.w3.org/1999/xlink" width="38" height="38" viewBox="0 0 38 38">
  <defs>
    <clipPath id="clip-path">
      <rect id="Retângulo_5821" data-name="Retângulo 5821" width="38" height="38" fill="#fff"/>
    </clipPath>
  </defs>
  <g id="Grupo_13169" data-name="Grupo 13169" clip-path="url(#clip-path)">
    <path id="Caminho_43863" data-name="Caminho 43863" d="M29.094,38.021H8.906A8.916,8.916,0,0,1,0,29.115V16.626A8.959,8.959,0,0,1,3.5,9.544L13.6,1.845a8.928,8.928,0,0,1,10.8,0L34.5,9.544A8.959,8.959,0,0,1,38,16.626V29.115a8.916,8.916,0,0,1-8.906,8.906M19,2.993a5.929,5.929,0,0,0-3.6,1.213L5.305,11.9a5.972,5.972,0,0,0-2.337,4.721V29.115a5.944,5.944,0,0,0,5.938,5.938H29.094a5.944,5.944,0,0,0,5.938-5.938V16.626A5.972,5.972,0,0,0,32.695,11.9L22.6,4.206A5.932,5.932,0,0,0,19,2.993" transform="translate(0 -0.023)" fill="#fff"/>
  </g>
</svg>
