<svg xmlns="http://www.w3.org/2000/svg" width="39" height="31.4" viewBox="0 0 39 31.4">
  <path id="ic-news" d="M33.825,34.4H8.175A6.175,6.175,0,0,1,2.01,28.575L2,28.225V8.275A4.275,4.275,0,0,1,5.982,4.01L6.275,4h23.75A4.275,4.275,0,0,1,34.29,7.982l.01.293V9.7h1.425a4.275,4.275,0,0,1,4.265,3.982l.01.293v14.25a6.176,6.176,0,0,1-5.825,6.165l-.35.01h0ZM8.175,31.55h25.65A3.325,3.325,0,0,0,37.139,28.5l.011-.273V13.975a1.425,1.425,0,0,0-1.232-1.412l-.193-.013H34.3V27.275a1.426,1.426,0,0,1-1.232,1.412l-.193.013a1.426,1.426,0,0,1-1.412-1.232l-.013-.193v-19a1.425,1.425,0,0,0-1.232-1.412l-.193-.013H6.275A1.425,1.425,0,0,0,4.863,8.082l-.013.193v19.95A3.325,3.325,0,0,0,7.9,31.539l.273.011h0Zm13.292-7.6h5.712a1.425,1.425,0,0,1,.193,2.837l-.193.013H21.467a1.425,1.425,0,0,1-.193-2.837l.193-.013h0Zm-5.705-6.641a1.425,1.425,0,0,1,1.425,1.425v6.641A1.425,1.425,0,0,1,15.762,26.8H9.121A1.425,1.425,0,0,1,7.7,25.375V18.734a1.425,1.425,0,0,1,1.425-1.425Zm-1.425,2.85H10.546V23.95h3.791Zm7.13-2.85h5.712a1.425,1.425,0,0,1,.193,2.837l-.193.013H21.467a1.425,1.425,0,0,1-.193-2.837l.193-.013h0ZM9.121,10.655H27.179a1.425,1.425,0,0,1,.193,2.837l-.193.013H9.121a1.425,1.425,0,0,1-.193-2.837l.193-.013h0Z" transform="translate(-1.5 -3.5)" fill="#8be2c0" stroke="#5ab290" stroke-width="1"/>
</svg>
