<svg xmlns="http://www.w3.org/2000/svg" width="217.72" height="56.693" viewBox="0 0 217.72 56.693">
  <g id="Logo_Open_Knowledge_Brasil_-_negativo" transform="translate(0)">
    <path id="Caminho_43836" data-name="Caminho 43836" d="M72.757,20.782a5.437,5.437,0,0,1-.364,1.99,4.556,4.556,0,0,1-2.607,2.635,5.722,5.722,0,0,1-4.093,0,5.4,5.4,0,0,1-1.6-1.037,4.313,4.313,0,0,1-1.009-1.6,5.721,5.721,0,0,1,0-3.981,4.865,4.865,0,0,1,1.009-1.57,4.377,4.377,0,0,1,1.6-1.037,5.722,5.722,0,0,1,4.093,0,4.637,4.637,0,0,1,2.607,2.635A4.993,4.993,0,0,1,72.757,20.782Zm-2.075,0a4.524,4.524,0,0,0-.2-1.374,2.56,2.56,0,0,0-.589-1.037,2.4,2.4,0,0,0-.925-.645,3.4,3.4,0,0,0-2.467,0,2.4,2.4,0,0,0-.925.645,2.932,2.932,0,0,0-.589,1.037,4.684,4.684,0,0,0,0,2.775,2.56,2.56,0,0,0,.589,1.037,2.629,2.629,0,0,0,.925.645,3.4,3.4,0,0,0,2.467,0,2.4,2.4,0,0,0,.925-.645,2.932,2.932,0,0,0,.589-1.037A4.971,4.971,0,0,0,70.683,20.782Z" fill="#fff"/>
    <path id="Caminho_43837" data-name="Caminho 43837" d="M78.392,22.3V25.66H76.374V15.876h3.308a6.04,6.04,0,0,1,1.738.224,3.19,3.19,0,0,1,1.205.673,2.528,2.528,0,0,1,.7,1.009,3.242,3.242,0,0,1,.224,1.262,4.194,4.194,0,0,1-.224,1.318A3.024,3.024,0,0,1,82.6,21.4a3.417,3.417,0,0,1-1.205.673,5.039,5.039,0,0,1-1.71.224Zm0-1.542h1.29a1.88,1.88,0,0,0,1.4-.477,1.71,1.71,0,0,0,.449-1.262,1.884,1.884,0,0,0-.112-.673,1.591,1.591,0,0,0-.336-.5,2.292,2.292,0,0,0-.561-.336,2.592,2.592,0,0,0-.813-.112H78.42v3.364Z" fill="#fff"/>
    <path id="Caminho_43838" data-name="Caminho 43838" d="M93.194,15.876v1.6H89.017V20h3.252v1.542H89.017V24.09h4.177v1.6H86.971V15.9h6.224Z" fill="#fff"/>
    <path id="Caminho_43839" data-name="Caminho 43839" d="M98.128,15.876a.4.4,0,0,1,.168.056.613.613,0,0,1,.14.084.743.743,0,0,1,.14.168l4.906,6.252a3.048,3.048,0,0,1-.028-.5V15.848h1.794v9.784h-1.037a.9.9,0,0,1-.392-.084,1.349,1.349,0,0,1-.308-.252l-4.878-6.2c0,.168.028.308.028.477V25.66H96.867V15.876h1.262Z" fill="#fff"/>
    <path id="Caminho_43840" data-name="Caminho 43840" d="M116.771,19.913h.392a.808.808,0,0,0,.729-.308l2.467-3.308a.932.932,0,0,1,.392-.336,1.587,1.587,0,0,1,.5-.084h1.766l-3.112,4.009a2.335,2.335,0,0,1-.617.561,1.056,1.056,0,0,1,.421.252,2.42,2.42,0,0,1,.364.392l3.2,4.57H121.48a1.15,1.15,0,0,1-.308-.028.733.733,0,0,1-.224-.084.586.586,0,0,1-.168-.112c-.056-.056-.084-.112-.14-.168l-2.523-3.532a.685.685,0,0,0-.308-.252,1.587,1.587,0,0,0-.5-.084h-.561v4.233h-1.99V15.848h2.018Z" fill="#fff"/>
    <path id="Caminho_43841" data-name="Caminho 43841" d="M127.564,15.876a.4.4,0,0,1,.168.056.612.612,0,0,1,.14.084.743.743,0,0,1,.14.168l4.906,6.252a3.047,3.047,0,0,1-.028-.5V15.848h1.794v9.784h-1.037a.9.9,0,0,1-.392-.084,1.348,1.348,0,0,1-.308-.252l-4.878-6.2c0,.168.028.308.028.477V25.66h-1.85V15.876h1.318Z" fill="#fff"/>
    <path id="Caminho_43842" data-name="Caminho 43842" d="M148.309,20.782a5.437,5.437,0,0,1-.364,1.99,4.556,4.556,0,0,1-2.607,2.635,5.722,5.722,0,0,1-4.093,0,5.4,5.4,0,0,1-1.6-1.037,4.313,4.313,0,0,1-1.009-1.6,5.721,5.721,0,0,1,0-3.981,4.44,4.44,0,0,1,1.009-1.57,4.377,4.377,0,0,1,1.6-1.037,5.722,5.722,0,0,1,4.093,0,4.556,4.556,0,0,1,2.607,2.635A4.993,4.993,0,0,1,148.309,20.782Zm-2.075,0a4.524,4.524,0,0,0-.2-1.374,2.56,2.56,0,0,0-.589-1.037,2.4,2.4,0,0,0-.925-.645,3.4,3.4,0,0,0-2.467,0,2.4,2.4,0,0,0-.925.645,2.932,2.932,0,0,0-.589,1.037,4.684,4.684,0,0,0,0,2.775,2.56,2.56,0,0,0,.589,1.037,2.629,2.629,0,0,0,.925.645,3.4,3.4,0,0,0,2.467,0,2.4,2.4,0,0,0,.925-.645,2.932,2.932,0,0,0,.589-1.037A4.971,4.971,0,0,0,146.234,20.782Z" fill="#fff"/>
    <path id="Caminho_43843" data-name="Caminho 43843" d="M150.747,15.876h1.71a.823.823,0,0,1,.449.112.558.558,0,0,1,.224.336l1.514,5.523c.028.168.084.308.112.5.028.168.084.364.112.561a3.278,3.278,0,0,1,.14-.561c.056-.168.084-.336.14-.5l1.766-5.523a.8.8,0,0,1,.224-.308.776.776,0,0,1,.449-.14h.589a.73.73,0,0,1,.421.112.876.876,0,0,1,.252.308l1.766,5.523c.056.14.084.308.14.477a2.978,2.978,0,0,1,.112.533c.028-.2.084-.364.112-.533s.084-.336.112-.477l1.514-5.523a.5.5,0,0,1,.224-.308.847.847,0,0,1,.449-.14h1.6l-3.028,9.812h-1.822l-1.99-6.392a.994.994,0,0,1-.084-.308l-.084-.336-.084.336c-.028.112-.056.2-.084.308l-2.018,6.392h-1.85Z" fill="#fff"/>
    <path id="Caminho_43844" data-name="Caminho 43844" d="M170.147,24.034h3.785v1.654H168.1V15.9h2.018v8.13Z" fill="#fff"/>
    <path id="Caminho_43845" data-name="Caminho 43845" d="M183.519,15.876v1.6h-4.177V20h3.252v1.542h-3.252V24.09h4.177v1.6h-6.252V15.9h6.252Z" fill="#fff"/>
    <path id="Caminho_43846" data-name="Caminho 43846" d="M195.938,20.782a5.189,5.189,0,0,1-.364,1.962,4.449,4.449,0,0,1-2.579,2.551,5.626,5.626,0,0,1-2.046.364h-3.757V15.876h3.757a5.626,5.626,0,0,1,2.046.364,4.44,4.44,0,0,1,1.57,1.009,4.591,4.591,0,0,1,1.009,1.542A5.437,5.437,0,0,1,195.938,20.782Zm-2.075,0a4.524,4.524,0,0,0-.2-1.374,2.56,2.56,0,0,0-.589-1.037,2.63,2.63,0,0,0-.925-.645,2.682,2.682,0,0,0-1.233-.224h-1.738v6.616h1.738a3.693,3.693,0,0,0,1.233-.224,2.4,2.4,0,0,0,.925-.645,3.811,3.811,0,0,0,.589-1.037,5.306,5.306,0,0,0,.2-1.43Z" fill="#fff"/>
    <path id="Caminho_43847" data-name="Caminho 43847" d="M206.086,25.519a6.634,6.634,0,0,1-3.981-.112,4.972,4.972,0,0,1-1.682-1.037,4.112,4.112,0,0,1-1.065-1.6,4.913,4.913,0,0,1-.364-1.99,5.478,5.478,0,0,1,.364-2.018,4.579,4.579,0,0,1,2.663-2.607,5.365,5.365,0,0,1,2.1-.364,7.276,7.276,0,0,1,1.121.084,4.306,4.306,0,0,1,.981.28,4.748,4.748,0,0,1,1.486.925l-.561.9a.494.494,0,0,1-.364.252.586.586,0,0,1-.477-.112,4.221,4.221,0,0,0-.477-.28,3.743,3.743,0,0,0-.5-.2,4.1,4.1,0,0,0-.561-.14,5.9,5.9,0,0,0-.7-.056,3.693,3.693,0,0,0-1.233.224,2.466,2.466,0,0,0-.925.673,2.56,2.56,0,0,0-.589,1.037,3.733,3.733,0,0,0-.2,1.346,5.1,5.1,0,0,0,.224,1.458,3.192,3.192,0,0,0,.645,1.065,3.4,3.4,0,0,0,.981.673,3.8,3.8,0,0,0,2.159.14,4.138,4.138,0,0,0,.757-.28V22.127h-1.121a.422.422,0,0,1-.308-.112.325.325,0,0,1-.112-.28V20.613h3.364V24.65A4.369,4.369,0,0,1,206.086,25.519Z" fill="#fff"/>
    <path id="Caminho_43848" data-name="Caminho 43848" d="M217.72,15.876v1.6h-4.177V20h3.252v1.542h-3.252V24.09h4.177v1.6h-6.252V15.9h6.252Z" fill="#fff"/>
    <rect id="Retângulo_5758" data-name="Retângulo 5758" width="15.054" height="1.822" transform="translate(40.883 13.579) rotate(-53.237)" fill="#fff"/>
    <rect id="Retângulo_5759" data-name="Retângulo 5759" width="7.261" height="1.822" transform="translate(37.955 12.005) rotate(-63.533)" fill="#fff"/>
    <rect id="Retângulo_5760" data-name="Retângulo 5760" width="11.41" height="1.822" transform="translate(34.846 10.953) rotate(-73.74)" fill="#fff"/>
    <rect id="Retângulo_5761" data-name="Retângulo 5761" width="7.261" height="1.822" transform="translate(31.516 10.469) rotate(-84.088)" fill="#fff"/>
    <rect id="Retângulo_5762" data-name="Retângulo 5762" width="1.822" height="8.13" transform="translate(27.583 2.464) rotate(-4.38)" fill="#fff"/>
    <rect id="Retângulo_5763" data-name="Retângulo 5763" width="1.822" height="5.551" transform="matrix(0.967, -0.253, 0.253, 0.967, 23.559, 5.899)" fill="#fff"/>
    <rect id="Retângulo_5764" data-name="Retângulo 5764" width="1.822" height="3.729" transform="matrix(0.907, -0.422, 0.422, 0.907, 20.32, 9.18)" fill="#fff"/>
    <rect id="Retângulo_5765" data-name="Retângulo 5765" width="1.822" height="1.458" transform="translate(18.272 13.161) rotate(-35.221)" fill="#fff"/>
    <rect id="Retângulo_5766" data-name="Retângulo 5766" width="1.822" height="5.971" transform="matrix(0.701, -0.713, 0.713, 0.701, 12.408, 12.44)" fill="#fff"/>
    <path id="Caminho_43849" data-name="Caminho 43849" d="M14.7,19.3,8.112,14.782l1.009-1.514,6.616,4.513Z" fill="#fff"/>
    <rect id="Retângulo_5767" data-name="Retângulo 5767" width="1.822" height="4.542" transform="translate(9.083 20.437) rotate(-66.103)" fill="#fff"/>
    <rect id="Retângulo_5768" data-name="Retângulo 5768" width="1.822" height="12.672" transform="translate(0 22.498) rotate(-76.38)" fill="#fff"/>
    <rect id="Retângulo_5769" data-name="Retângulo 5769" width="1.822" height="9.195" transform="translate(2.822 28.249) rotate(-86.67)" fill="#fff"/>
    <rect id="Retângulo_5770" data-name="Retângulo 5770" width="8.971" height="1.822" transform="matrix(0.993, -0.121, 0.121, 0.993, 3.138, 31.373)" fill="#fff"/>
    <rect id="Retângulo_5771" data-name="Retângulo 5771" width="2.075" height="1.822" transform="translate(10.583 34.17) rotate(-17.241)" fill="#fff"/>
    <rect id="Retângulo_5772" data-name="Retângulo 5772" width="7.541" height="1.822" transform="translate(6.997 40.199) rotate(-27.523)" fill="#fff"/>
    <rect id="Retângulo_5773" data-name="Retângulo 5773" width="8.129" height="1.822" transform="translate(8.914 44.554) rotate(-37.81)" fill="#fff"/>
    <rect id="Retângulo_5774" data-name="Retângulo 5774" width="7.933" height="1.822" transform="matrix(0.668, -0.744, 0.744, 0.668, 12.166, 48.024)" fill="#fff"/>
    <rect id="Retângulo_5775" data-name="Retângulo 5775" width="3.644" height="1.822" transform="matrix(0.524, -0.852, 0.852, 0.524, 18.122, 47.357)" fill="#fff"/>
    <rect id="Retângulo_5776" data-name="Retângulo 5776" width="7.12" height="1.822" transform="translate(20.332 52.498) rotate(-68.659)" fill="#fff"/>
    <rect id="Retângulo_5777" data-name="Retângulo 5777" width="6.532" height="1.822" transform="translate(24.809 53.365) rotate(-78.96)" fill="#fff"/>
    <rect id="Retângulo_5778" data-name="Retângulo 5778" width="4.541" height="1.822" transform="translate(29.291 51.993) rotate(-89.23)" fill="#fff"/>
    <rect id="Retângulo_5779" data-name="Retângulo 5779" width="1.822" height="8.803" transform="matrix(0.986, -0.166, 0.166, 0.986, 32.679, 47.36)" fill="#fff"/>
    <rect id="Retângulo_5780" data-name="Retângulo 5780" width="1.822" height="5.298" transform="translate(35.942 46.717) rotate(-19.81)" fill="#fff"/>
    <path id="Caminho_43850" data-name="Caminho 43850" d="M39,45.451l6.616,11.242,1.57-.925L40.575,44.526Z" fill="#fff"/>
    <path id="Caminho_43851" data-name="Caminho 43851" d="M42.874,44.722l-1.009-1.037,1.318-1.233.981,1.009Z" fill="#fff"/>
    <rect id="Retângulo_5781" data-name="Retângulo 5781" width="1.822" height="5.859" transform="matrix(0.634, -0.774, 0.774, 0.634, 44.261, 41.424)" fill="#fff"/>
    <rect id="Retângulo_5782" data-name="Retângulo 5782" width="1.822" height="5.298" transform="translate(46.26 38.759) rotate(-60.961)" fill="#fff"/>
    <rect id="Retângulo_5783" data-name="Retângulo 5783" width="1.822" height="2.355" transform="translate(47.767 35.775) rotate(-71.252)" fill="#fff"/>
    <rect id="Retângulo_5784" data-name="Retângulo 5784" width="1.822" height="7.093" transform="matrix(0.147, -0.989, 0.989, 0.147, 48.677, 32.593)" fill="#fff"/>
    <rect id="Retângulo_5785" data-name="Retângulo 5785" width="4.514" height="1.822" transform="matrix(1, -0.03, 0.03, 1, 48.96, 27.552)" fill="#fff"/>
    <rect id="Retângulo_5786" data-name="Retângulo 5786" width="5.691" height="1.822" transform="translate(48.444 24.182) rotate(-12.088)" fill="#fff"/>
    <rect id="Retângulo_5787" data-name="Retângulo 5787" width="3.869" height="1.822" transform="translate(47.31 21.054) rotate(-22.39)" fill="#fff"/>
    <rect id="Retângulo_5788" data-name="Retângulo 5788" width="11.27" height="1.822" transform="translate(45.614 18.204) rotate(-32.662)" fill="#fff"/>
    <rect id="Retângulo_5789" data-name="Retângulo 5789" width="1.962" height="1.822" transform="matrix(0.732, -0.682, 0.682, 0.732, 43.449, 15.682)" fill="#fff"/>
    <path id="Caminho_43852" data-name="Caminho 43852" d="M37.239,20.7l-.7-.589.477-.561.7.589-.336.392Z" fill="#fff"/>
    <rect id="Retângulo_5790" data-name="Retângulo 5790" width="2.775" height="0.897" transform="translate(33.981 21.049) rotate(-63.551)" fill="#fff"/>
    <rect id="Retângulo_5791" data-name="Retângulo 5791" width="1.598" height="0.897" transform="translate(32.832 19.427) rotate(-73.829)" fill="#fff"/>
    <rect id="Retângulo_5792" data-name="Retângulo 5792" width="2.747" height="0.897" transform="translate(30.988 20.32) rotate(-84.123)" fill="#fff"/>
    <rect id="Retângulo_5793" data-name="Retângulo 5793" width="0.897" height="2.523" transform="translate(29.22 17.652) rotate(-4.38)" fill="#fff"/>
    <rect id="Retângulo_5794" data-name="Retângulo 5794" width="0.897" height="3.224" transform="matrix(0.967, -0.253, 0.253, 0.967, 27.215, 18.038)" fill="#fff"/>
    <rect id="Retângulo_5795" data-name="Retângulo 5795" width="0.897" height="3.729" transform="translate(25.325 18.825) rotate(-24.948)" fill="#fff"/>
    <path id="Caminho_43853" data-name="Caminho 43853" d="M26.362,23.865l-2.775-3.953.729-.533,2.775,3.981Z" fill="#fff"/>
    <rect id="Retângulo_5796" data-name="Retângulo 5796" width="0.897" height="3.112" transform="matrix(0.701, -0.713, 0.713, 0.701, 22.095, 21.304)" fill="#fff"/>
    <rect id="Retângulo_5797" data-name="Retângulo 5797" width="0.897" height="2.775" transform="translate(20.869 22.936) rotate(-55.813)" fill="#fff"/>
    <rect id="Retângulo_5798" data-name="Retângulo 5798" width="0.897" height="3.588" transform="translate(19.929 24.751) rotate(-66.091)" fill="#fff"/>
    <rect id="Retângulo_5799" data-name="Retângulo 5799" width="0.897" height="1.29" transform="translate(19.325 26.7) rotate(-76.38)" fill="#fff"/>
    <rect id="Retângulo_5800" data-name="Retângulo 5800" width="0.897" height="2.271" transform="matrix(0.058, -0.998, 0.998, 0.058, 19.121, 28.75)" fill="#fff"/>
    <rect id="Retângulo_5801" data-name="Retângulo 5801" width="2.355" height="0.897" transform="matrix(0.993, -0.121, 0.121, 0.993, 19.143, 29.905)" fill="#fff"/>
    <path id="Caminho_43854" data-name="Caminho 43854" d="M19.774,32.78l-.28-.869,4.4-1.346.28.869Z" fill="#fff"/>
    <rect id="Retângulo_5802" data-name="Retângulo 5802" width="2.719" height="0.897" transform="translate(20.23 33.852) rotate(-27.562)" fill="#fff"/>
    <rect id="Retângulo_5803" data-name="Retângulo 5803" width="2.579" height="0.897" transform="matrix(0.79, -0.613, 0.613, 0.79, 21.251, 35.6)" fill="#fff"/>
    <rect id="Retângulo_5804" data-name="Retângulo 5804" width="2.663" height="0.897" transform="translate(22.578 37.173) rotate(-48.089)" fill="#fff"/>
    <rect id="Retângulo_5805" data-name="Retângulo 5805" width="3.728" height="0.897" transform="translate(24.167 38.421) rotate(-58.398)" fill="#fff"/>
    <rect id="Retângulo_5806" data-name="Retângulo 5806" width="2.803" height="0.897" transform="translate(25.971 39.43) rotate(-68.69)" fill="#fff"/>
    <rect id="Retângulo_5807" data-name="Retângulo 5807" width="3.056" height="0.897" transform="matrix(0.19, -0.982, 0.982, 0.19, 27.816, 40.055)" fill="#fff"/>
    <rect id="Retângulo_5808" data-name="Retângulo 5808" width="3.588" height="0.897" transform="matrix(0.013, -1, 1, 0.013, 29.933, 40.372)" fill="#fff"/>
    <rect id="Retângulo_5809" data-name="Retângulo 5809" width="0.897" height="2.355" transform="translate(31.585 37.979) rotate(-9.52)" fill="#fff"/>
    <rect id="Retângulo_5810" data-name="Retângulo 5810" width="0.897" height="3.448" transform="translate(32.825 36.625) rotate(-19.841)" fill="#fff"/>
    <rect id="Retângulo_5811" data-name="Retângulo 5811" width="0.897" height="0.869" transform="translate(35.413 38.318) rotate(-30.073)" fill="#fff"/>
    <path id="Caminho_43855" data-name="Caminho 43855" d="M37.575,37.966l-3.252-3.813.7-.589,3.224,3.813Z" fill="#fff"/>
    <rect id="Retângulo_5812" data-name="Retângulo 5812" width="0.897" height="3.14" transform="matrix(0.634, -0.774, 0.774, 0.634, 36.631, 34.549)" fill="#fff"/>
    <rect id="Retângulo_5813" data-name="Retângulo 5813" width="0.897" height="3.308" transform="translate(37.392 33.3) rotate(-60.949)" fill="#fff"/>
    <path id="Caminho_43856" data-name="Caminho 43856" d="M41.191,33.06l-4.065-1.374.28-.869,4.065,1.4Z" fill="#fff"/>
    <rect id="Retângulo_5814" data-name="Retângulo 5814" width="0.897" height="2.775" transform="translate(38.988 30.686) rotate(-81.501)" fill="#fff"/>
    <rect id="Retângulo_5815" data-name="Retângulo 5815" width="3.532" height="0.897" transform="matrix(0.999, -0.032, 0.032, 0.999, 38.386, 28.299)" fill="#fff"/>
    <rect id="Retângulo_5816" data-name="Retângulo 5816" width="3.224" height="0.897" transform="matrix(0.978, -0.21, 0.21, 0.978, 38.436, 26.821)" fill="#fff"/>
    <rect id="Retângulo_5817" data-name="Retângulo 5817" width="3.672" height="0.897" transform="translate(37.507 25.627) rotate(-22.359)" fill="#fff"/>
    <rect id="Retângulo_5818" data-name="Retângulo 5818" width="1.598" height="0.897" transform="matrix(0.842, -0.539, 0.539, 0.842, 38.536, 23.312)" fill="#fff"/>
    <rect id="Retângulo_5819" data-name="Retângulo 5819" width="4.317" height="0.897" transform="matrix(0.732, -0.681, 0.681, 0.732, 35.426, 23.827)" fill="#fff"/>
    <g id="Grupo_13168" data-name="Grupo 13168">
      <path id="Caminho_43857" data-name="Caminho 43857" d="M66.534,32.416a5.484,5.484,0,0,1,1.458.168A2.819,2.819,0,0,1,69,33.06a1.977,1.977,0,0,1,.589.757,2.938,2.938,0,0,1,.2,1.009,1.645,1.645,0,0,1-.112.645,2.971,2.971,0,0,1-.308.589,2.931,2.931,0,0,1-.533.477,4.748,4.748,0,0,1-.757.364,2.84,2.84,0,0,1,1.542.729,1.954,1.954,0,0,1,.5,1.4A2.583,2.583,0,0,1,69.9,40.1a2.335,2.335,0,0,1-.645.841,2.792,2.792,0,0,1-1.037.533,4.17,4.17,0,0,1-1.374.2h-3.28V32.388h2.972Zm-1.71.981v3.168h1.654a2.983,2.983,0,0,0,.925-.112,2,2,0,0,0,.645-.336,1.37,1.37,0,0,0,.392-.5,1.645,1.645,0,0,0,.112-.645,1.4,1.4,0,0,0-.5-1.205,2.5,2.5,0,0,0-1.514-.392h-1.71Zm1.99,7.289a2.983,2.983,0,0,0,.925-.112,2,2,0,0,0,.645-.336,1.393,1.393,0,0,0,.364-.533,1.7,1.7,0,0,0,.112-.673,1.429,1.429,0,0,0-.5-1.149,2.355,2.355,0,0,0-1.542-.421H64.8v3.224h2.018Z" fill="#fff"/>
      <path id="Caminho_43858" data-name="Caminho 43858" d="M80.719,41.695H79.6a.566.566,0,0,1-.5-.252l-2.411-3.308a.846.846,0,0,0-.224-.224.775.775,0,0,0-.392-.056h-.953v3.869H73.851V32.444h2.607a5.938,5.938,0,0,1,1.514.168,2.894,2.894,0,0,1,1.065.5,2.166,2.166,0,0,1,.617.813,2.58,2.58,0,0,1,.2,1.065,2.469,2.469,0,0,1-.168.925,2.576,2.576,0,0,1-.449.757,3.05,3.05,0,0,1-.729.589,3.539,3.539,0,0,1-.953.364,1.124,1.124,0,0,1,.421.392ZM76.43,36.9a3.25,3.25,0,0,0,.953-.14,2.361,2.361,0,0,0,.7-.364,1.431,1.431,0,0,0,.421-.589,2.14,2.14,0,0,0,.14-.757,1.484,1.484,0,0,0-.533-1.262,2.621,2.621,0,0,0-1.626-.421H75.112v3.5H76.43Z" fill="#fff"/>
      <path id="Caminho_43859" data-name="Caminho 43859" d="M91.456,41.695h-.981a.474.474,0,0,1-.28-.084,1.554,1.554,0,0,1-.168-.224l-.869-2.243H85.036l-.869,2.243a.5.5,0,0,1-.14.2.474.474,0,0,1-.28.084h-.981l3.7-9.279h1.262Zm-2.607-3.448-1.458-3.785c-.056-.112-.084-.252-.14-.392s-.084-.308-.14-.477a8.018,8.018,0,0,1-.28.869l-1.458,3.757h3.476Z" fill="#fff"/>
      <path id="Caminho_43860" data-name="Caminho 43860" d="M99.362,33.873a.338.338,0,0,1-.14.14.4.4,0,0,1-.168.056.342.342,0,0,1-.252-.112,4.1,4.1,0,0,0-.364-.252,4.808,4.808,0,0,0-.533-.252,2.051,2.051,0,0,0-.757-.112,1.9,1.9,0,0,0-.729.112,1.406,1.406,0,0,0-.533.308,1.71,1.71,0,0,0-.336.449,1.255,1.255,0,0,0-.112.561.983.983,0,0,0,.2.645,2.619,2.619,0,0,0,.5.449,4.054,4.054,0,0,0,.7.308c.252.084.533.168.813.28a6.976,6.976,0,0,1,.813.308,2.993,2.993,0,0,1,.7.449,2.118,2.118,0,0,1,.5.673,2.041,2.041,0,0,1,.2.981,3.2,3.2,0,0,1-.2,1.149,2.338,2.338,0,0,1-.617.925,2.669,2.669,0,0,1-.981.617,3.813,3.813,0,0,1-1.318.224,3.964,3.964,0,0,1-1.654-.336,3.448,3.448,0,0,1-1.262-.9l.364-.589c.028-.056.084-.084.112-.112a.4.4,0,0,1,.168-.056.713.713,0,0,1,.2.056,1.967,1.967,0,0,0,.252.168c.084.056.2.14.308.224a1.788,1.788,0,0,0,.392.224,5.293,5.293,0,0,0,.5.168,2.3,2.3,0,0,0,.645.056,2.211,2.211,0,0,0,.785-.112,2.017,2.017,0,0,0,.589-.336,1.393,1.393,0,0,0,.364-.533,1.837,1.837,0,0,0,.14-.7,1.147,1.147,0,0,0-.2-.7,1.934,1.934,0,0,0-.5-.449,4.054,4.054,0,0,0-.7-.308c-.28-.084-.533-.168-.813-.252a6.976,6.976,0,0,1-.813-.308,2.507,2.507,0,0,1-.7-.449,2.254,2.254,0,0,1-.5-.7,2.285,2.285,0,0,1-.2-1.037,2.235,2.235,0,0,1,.2-.953,2.347,2.347,0,0,1,.561-.813,2.874,2.874,0,0,1,.9-.561,3.338,3.338,0,0,1,1.233-.224,3.778,3.778,0,0,1,1.4.252,3.3,3.3,0,0,1,1.121.7Z" fill="#fff"/>
      <path id="Caminho_43861" data-name="Caminho 43861" d="M104.828,41.695h-1.262V32.416h1.262Z" fill="#fff"/>
      <path id="Caminho_43862" data-name="Caminho 43862" d="M114.416,40.63v1.065h-5.27V32.416h1.262V40.63h4.009Z" fill="#fff"/>
    </g>
  </g>
</svg>
