<svg id="logo" xmlns="http://www.w3.org/2000/svg" xmlns:xlink="http://www.w3.org/1999/xlink" width="108.378" height="57.607" viewBox="0 0 108.378 57.607">
  <defs>
    <clipPath id="clip-path">
      <rect id="Ret창ngulo_5967" data-name="Ret창ngulo 5967" width="108.378" height="57.607" fill="#4aa381"/>
    </clipPath>
    <clipPath id="clip-path-2">
      <rect id="Ret창ngulo_5973" data-name="Ret창ngulo 5973" width="26.117" height="25.47" fill="#4aa381"/>
    </clipPath>
  </defs>
  <g id="Grupo_13230" data-name="Grupo 13230" clip-path="url(#clip-path)">
    <path id="Caminho_44252" data-name="Caminho 44252" d="M13.879,19.6a6.5,6.5,0,0,0,4.776-1.89l5.969,3.433c-2.438,3.382-6.119,5.124-10.845,5.124C5.273,26.266,0,20.545,0,13.133A12.753,12.753,0,0,1,13.232,0C20.5,0,25.868,5.621,25.868,13.133a14.456,14.456,0,0,1-.3,2.985H7.91c.945,2.587,3.234,3.482,5.97,3.482m4.577-9.054a5.12,5.12,0,0,0-5.273-3.93,5.135,5.135,0,0,0-5.422,3.93Z" fill="#4aa381"/>
    <path id="Caminho_44253" data-name="Caminho 44253" d="M125.669,27.777l-4.626-6.566-4.626,6.566h-8.556l8.9-12.635L108.159,2.9h8.556l4.328,6.168L125.371,2.9h8.556l-8.606,12.237,8.9,12.635Z" transform="translate(-81.993 -2.208)" fill="#4aa381"/>
    <path id="Caminho_44254" data-name="Caminho 44254" d="M63.951,123.178a9.356,9.356,0,0,1,7.139,2.761,10.38,10.38,0,0,1,2.612,7.437v15.272H70.418V133.376a7.174,7.174,0,0,0-1.766-5.173,6.606,6.606,0,0,0-5-1.841,7.828,7.828,0,0,0-5.82,2.263q-2.238,2.264-2.238,6.989v13.033H52.311V123.775h3.283v3.88a9.2,9.2,0,0,1,8.357-4.477" transform="translate(-39.766 -93.637)" fill="#4aa381"/>
    <path id="Caminho_44255" data-name="Caminho 44255" d="M174.816,123.178a11.282,11.282,0,0,1,8.929,3.905,13.584,13.584,0,0,1,3.407,9.228q0,.548-.1,1.542H165.215a8.915,8.915,0,0,0,3.209,5.994,10.231,10.231,0,0,0,6.691,2.214,9.782,9.782,0,0,0,4.9-1.169,7.884,7.884,0,0,0,3.109-3.059l2.885,1.691a11.808,11.808,0,0,1-4.477,4.179,13.324,13.324,0,0,1-6.467,1.542,12.919,12.919,0,0,1-9.551-3.681,12.668,12.668,0,0,1-3.681-9.352,12.806,12.806,0,0,1,3.631-9.3,12.477,12.477,0,0,1,9.352-3.731m0,3.184a9.313,9.313,0,0,0-9.6,8.308H183.77a9.277,9.277,0,0,0-3.034-6.119,8.784,8.784,0,0,0-5.92-2.189" transform="translate(-123.021 -93.637)" fill="#4aa381"/>
    <path id="Caminho_44257" data-name="Caminho 44257" d="M241.924.092H224.3a13.182,13.182,0,0,0,0,26.365h17.623a13.182,13.182,0,0,0,0-26.365m8.49,13.182a8.5,8.5,0,0,1-8.49,8.494H224.3a8.494,8.494,0,0,1,0-16.989h17.623a8.5,8.5,0,0,1,8.49,8.494" transform="translate(-160.492 -0.07)" fill="#4aa381"/>
    <path id="Caminho_44258" data-name="Caminho 44258" d="M289.077,128.655q2.287-4.525,7.858-4.526v3.183a8.147,8.147,0,0,0-5.62,1.989q-2.238,1.99-2.238,6.266v13.825H285.8V124.527h3.282Z" transform="translate(-217.255 -94.36)" fill="#4aa381"/>
    <path id="Caminho_44259" data-name="Caminho 44259" d="M324.45,35.251a6.3,6.3,0,1,1-6.3-6.3,6.3,6.3,0,0,1,6.3,6.3" transform="translate(-237.065 -22.009)" fill="#e4d243"/>
    <g id="Grupo_13235" data-name="Grupo 13235" transform="translate(79.681 29.54)">
      <g id="Grupo_13235-2" data-name="Grupo 13235" clip-path="url(#clip-path-2)">
        <path id="Caminho_44270" data-name="Caminho 44270" d="M13.281,25.47h-.446A12.8,12.8,0,0,1,0,12.735,12.8,12.8,0,0,1,12.836,0h.446A12.8,12.8,0,0,1,26.117,12.735,12.8,12.8,0,0,1,13.281,25.47M12.836,2.885a9.85,9.85,0,1,0,0,19.7h.446a9.85,9.85,0,1,0,0-19.7Z" fill="#4aa381"/>
      </g>
    </g>
  </g>
</svg>
